<?xml version="1.0" encoding="UTF-8"?><svg id="Outline" xmlns="http://www.w3.org/2000/svg" viewBox="0 0 64 64"><path d="M11,39H49c.553,0,1-.448,1-1,0-5.56-2.285-10.594-5.96-14.222-.017-.02-.024-.045-.043-.063-.028-.027-.063-.037-.093-.06-3.602-3.492-8.502-5.654-13.904-5.654s-10.302,2.162-13.905,5.655c-.029,.023-.065,.033-.092,.06-.019,.019-.026,.044-.043,.063-3.675,3.629-5.96,8.662-5.96,14.222,0,.552,.447,1,1,1Zm28.748-12.378c-2.387-2.048-5.419-3.351-8.748-3.572v-3.002c4.144,.229,7.911,1.859,10.845,4.433l-2.097,2.14Zm-10.748-3.572c-3.329,.221-6.362,1.524-8.748,3.572l-2.097-2.14c2.934-2.574,6.701-4.204,10.845-4.433v3.002Zm1,1.949c6.83,0,12.435,5.299,12.949,12h-7.04c-.478-2.833-2.942-5-5.91-5-.728,0-1.423,.137-2.069,.375l-4.659-2.254c-.387-.186-.851-.105-1.152,.203-.3,.308-.369,.774-.172,1.157l2.374,4.596c-.101,.298-.178,.607-.232,.923h-7.04c.514-6.701,6.119-12,12.949-12Zm-4.897,8.229l.81,.392c-.139,.13-.271,.265-.397,.407l-.413-.799Zm4.897,.771c1.859,0,3.411,1.28,3.858,3h-7.716c.447-1.72,1.999-3,3.858-3Zm14.949,3c-.228-3.437-1.614-6.554-3.777-8.974l2.104-2.148c2.716,2.972,4.461,6.846,4.696,11.122h-3.023Zm-28.226-11.122l2.104,2.148c-2.163,2.42-3.549,5.537-3.777,8.974h-3.023c.235-4.276,1.98-8.15,4.696-11.122Z"/><path d="M14,49H46c2.206,0,4-1.794,4-4s-1.794-4-4-4H14c-2.206,0-4,1.794-4,4s1.794,4,4,4Zm12.613-6l-1.333,4h-5.893l1.333-4h5.893Zm21.387,2c0,1.103-.897,2-2,2H27.387l1.333-4h17.28c1.103,0,2,.897,2,2Zm-34-2h4.613l-1.333,4h-3.28c-1.103,0-2-.897-2-2s.897-2,2-2Z"/><path d="M57,12h-1v-2c0-2.757-2.243-5-5-5H7c-2.757,0-5,2.243-5,5V50c0,2.757,2.243,5,5,5h1c0,2.757,2.243,5,5,5H57c2.757,0,5-2.243,5-5V17c0-2.757-2.243-5-5-5Zm0,2c1.654,0,3,1.346,3,3v3h-4v-6h1ZM4,10c0-1.654,1.346-3,3-3H51c1.654,0,3,1.346,3,3v3H4v-3Zm3,43c-1.654,0-3-1.346-3-3V15H54V50c0,1.654-1.346,3-3,3H7Zm53,2c0,1.654-1.346,3-3,3H13c-1.654,0-3-1.346-3-3H51c2.757,0,5-2.243,5-5V22h4V55Z"/><path d="M43.02,9h-.01c-.552,0-.995,.448-.995,1s.453,1,1.005,1,1-.448,1-1-.447-1-1-1Z"/><path d="M47.02,9h-.01c-.552,0-.995,.448-.995,1s.453,1,1.005,1,1-.448,1-1-.447-1-1-1Z"/><path d="M51.02,9h-.01c-.552,0-.995,.448-.995,1s.453,1,1.005,1,1-.448,1-1-.447-1-1-1Z"/></svg>