<?xml version="1.0" encoding="utf-8"?>
<!-- Generator: Adobe Illustrator 26.0.2, SVG Export Plug-In . SVG Version: 6.00 Build 0)  -->
<svg version="1.1" id="Layer_3" xmlns="http://www.w3.org/2000/svg" xmlns:xlink="http://www.w3.org/1999/xlink" x="0px" y="0px"
	 viewBox="0 0 64 64" fill="#808080
"  style="enable-background:new 0 0 64 64;" xml:space="preserve">
<g>
	<path d="M62,7H2C1.447,7,1,7.448,1,8v48c0,0.552,0.447,1,1,1h60c0.553,0,1-0.448,1-1V8C63,7.448,62.553,7,62,7z M61,9v6H3V9H61z
		 M3,55V17h58v38H3z"/>
	<rect x="57" y="11" width="2" height="2"/>
	<rect x="53" y="11" width="2" height="2"/>
	<rect x="49" y="11" width="2" height="2"/>
	<path d="M54,19H10c-0.553,0-1,0.448-1,1v8c0,0.552,0.447,1,1,1h44c0.553,0,1-0.448,1-1v-8C55,19.448,54.553,19,54,19z M53,27H11v-6
		h42V27z"/>
	<path d="M54,43H10c-0.553,0-1,0.448-1,1v8c0,0.552,0.447,1,1,1h44c0.553,0,1-0.448,1-1v-8C55,43.448,54.553,43,54,43z M53,51H11v-6
		h42V51z"/>
	<path d="M14,41c2.757,0,5-2.243,5-5s-2.243-5-5-5s-5,2.243-5,5S11.243,41,14,41z M14,33c1.654,0,3,1.346,3,3s-1.346,3-3,3
		s-3-1.346-3-3S12.346,33,14,33z"/>
	<path d="M31,36c0-2.757-2.243-5-5-5s-5,2.243-5,5s2.243,5,5,5S31,38.757,31,36z M23,36c0-1.654,1.346-3,3-3s3,1.346,3,3
		s-1.346,3-3,3S23,37.654,23,36z"/>
	<path d="M43,36c0-2.757-2.243-5-5-5s-5,2.243-5,5s2.243,5,5,5S43,38.757,43,36z M35,36c0-1.654,1.346-3,3-3s3,1.346,3,3
		s-1.346,3-3,3S35,37.654,35,36z"/>
	<path d="M55,36c0-2.757-2.243-5-5-5s-5,2.243-5,5s2.243,5,5,5S55,38.757,55,36z M47,36c0-1.654,1.346-3,3-3s3,1.346,3,3
		s-1.346,3-3,3S47,37.654,47,36z"/>
</g>
</svg>
