<?xml version="1.0" encoding="UTF-8" standalone="no"?> <svg xmlns="http://www.w3.org/2000/svg" viewBox="0 0 64 64"><g id="Layer_21" data-name="Layer 21"><path d="M56.36,3.48H7.64A4.64,4.64,0,0,0,3,8.12H3V45.4A4.65,4.65,0,0,0,7.64,50h.3a1,1,0,1,0,0-2h-.3A2.64,2.64,0,0,1,5,45.4v-30H59v30A2.64,2.64,0,0,1,56.36,48h-22a1,1,0,0,0,0,2h22A4.64,4.64,0,0,0,61,45.4V8.12h0A4.64,4.64,0,0,0,56.36,3.48ZM5,13.43V8.12A2.64,2.64,0,0,1,7.64,5.48H56.36A2.64,2.64,0,0,1,59,8.12v5.31Z"/><path d="M11.42,8.46h-2a1,1,0,0,0,0,2h2a1,1,0,0,0,0-2Z"/><path d="M18.25,8.46h-2a1,1,0,0,0,0,2h2a1,1,0,0,0,0-2Z"/><path d="M25.08,8.46h-2a1,1,0,0,0,0,2h2a1,1,0,0,0,0-2Z"/><path d="M33.26,46.52a2.38,2.38,0,0,0,3.34,0l1.14-1.14a2.39,2.39,0,0,0,0-3.37l-13-13a2.38,2.38,0,0,0-3.37,0l-1.14,1.14a2.38,2.38,0,0,0,0,3.34L10.64,46.94a1.06,1.06,0,0,0,.11,1.32l.56.56L8.18,52a1,1,0,0,0,0,1.48l5.09,5.09a1.09,1.09,0,0,0,.74.32h0a1.09,1.09,0,0,0,.74-.31l.84-.84,0,.05a7.6,7.6,0,0,0,5.89,2.78,7.43,7.43,0,0,0,4.27-1.34,7.54,7.54,0,0,0,2.63-9.25Zm-11.62-15,1.14-1.14a.38.38,0,0,1,.54,0l13,13a.38.38,0,0,1,0,.54l-1.14,1.14a.38.38,0,0,1-.54,0l-13-13A.38.38,0,0,1,21.64,31.53Zm0,3.36L31.82,45.09,19.29,54l-.72-.72-5.1-5.1-.72-.72ZM10.27,52.7l2.46-2.46L16.47,54,14,56.45Zm14.38,4.85a5.63,5.63,0,0,1-7.47-1.07c-.06-.07-.1-.15-.15-.22l.85-.85.56.56a1,1,0,0,0,.74.29,1,1,0,0,0,.59-.18h0l7-5A5.56,5.56,0,0,1,24.65,57.55Z"/><path d="M44.38,36.76a4.71,4.71,0,0,0,0,6.71,4.76,4.76,0,0,0,3.36,1.4h0a4.75,4.75,0,0,0,3.35-1.37,4.71,4.71,0,0,0,0-6.71,4.76,4.76,0,0,0-3.36-1.4A4.88,4.88,0,0,0,44.38,36.76Zm6.12,3.38a2.71,2.71,0,0,1-.82,1.93,2.58,2.58,0,0,1-2,.79,2.77,2.77,0,0,1-2-.81,2.72,2.72,0,0,1,0-3.86,2.77,2.77,0,0,1,2-.79h0a2.77,2.77,0,0,1,2,.81A2.7,2.7,0,0,1,50.51,40.14Z"/><path d="M32.58,32.91a3,3,0,0,0,.89,2.16,3,3,0,0,0,2.15.9h0a3.05,3.05,0,0,0,3.06-3,3,3,0,0,0-.89-2.16,3,3,0,0,0-2.15-.9h0A3.05,3.05,0,0,0,32.58,32.91Zm3.06-1h0a1.06,1.06,0,0,1,.75.31,1,1,0,0,1,.3.73,1,1,0,0,1-1.06,1h0a1.06,1.06,0,0,1-.75-.31,1,1,0,0,1-.3-.73A1,1,0,0,1,35.64,31.89Z"/><path d="M31.32,16.68a4,4,0,1,0-1,8h0a4.17,4.17,0,0,0,.52,0,4.05,4.05,0,0,0,2.48-.84A4,4,0,0,0,34,18.21,4.06,4.06,0,0,0,31.32,16.68ZM32.87,21a2,2,0,0,1-.78,1.35,2.07,2.07,0,0,1-1.53.41h0a2,2,0,1,1,1.89-3.27A2,2,0,0,1,32.87,21Z"/><path d="M44,18.12a1,1,0,0,0-1,1v3.12l-.59.59h0l-2.22,2.22a1,1,0,0,0,1.41,1.41l.51-.51v5.76a1,1,0,0,0,1,1H54.63a1,1,0,0,0,1-1V26l.52.52a1,1,0,0,0,1.41-1.41l-8-8a1,1,0,0,0-1.41,0L45,20.24V19.12A1,1,0,0,0,44,18.12Zm4.89,1.06L53.63,24v6.76H44.08V24Z"/></g></svg>